<svg version="1.1" xmlns="http://www.w3.org/2000/svg" xmlns:xlink="http://www.w3.org/1999/xlink" x="0px" y="0px" width="64px" height="64px" viewBox="0 0 64 64" enable-background="new 0 0 64 64" xml:space="preserve" style="height: 64px; width: 64px;" id="nectar-svg-animation-instance-2">
<g>
	<path fill="none" stroke="#000000" stroke-width="2" stroke-miterlimit="10" d="M46,10L18,10" style="stroke-dasharray: 28, 30; stroke-dashoffset: 0;"></path>
	<path fill="none" stroke="#000000" stroke-width="2" stroke-miterlimit="10" d="M12,10L1,10L1,58L63,58L63,10L52,10" style="stroke-dasharray: 180, 182; stroke-dashoffset: 0;"></path>
	<path fill="none" stroke="#000000" stroke-width="2" stroke-miterlimit="10" width="6" height="8" d="M12 6 L18 6 L18 14 L12 14 Z" style="stroke-dasharray: 28, 30; stroke-dashoffset: 0;"></path>
	<path fill="none" stroke="#000000" stroke-width="2" stroke-miterlimit="10" width="6" height="8" d="M46 6 L52 6 L52 14 L46 14 Z" style="stroke-dasharray: 28, 30; stroke-dashoffset: 0;"></path>
	<path fill="none" stroke="#000000" stroke-width="2" stroke-miterlimit="10" width="10" height="10" d="M10 24 L20 24 L20 34 L10 34 Z" style="stroke-dasharray: 40, 42; stroke-dashoffset: 0;"></path>
	<path fill="none" stroke="#000000" stroke-width="2" stroke-miterlimit="10" width="10" height="10" d="M10 42 L20 42 L20 52 L10 52 Z" style="stroke-dasharray: 40, 42; stroke-dashoffset: 0;"></path>
	<path fill="none" stroke="#000000" stroke-width="2" stroke-miterlimit="10" width="10" height="10" d="M44 24 L54 24 L54 34 L44 34 Z" style="stroke-dasharray: 40, 42; stroke-dashoffset: 0;"></path>
	<path fill="none" stroke="#000000" stroke-width="2" stroke-miterlimit="10" width="10" height="10" d="M44 42 L54 42 L54 52 L44 52 Z" style="stroke-dasharray: 40, 42; stroke-dashoffset: 0;"></path>
	<path fill="none" stroke="#000000" stroke-width="2" stroke-miterlimit="10" width="10" height="10" d="M27 24 L37 24 L37 34 L27 34 Z" style="stroke-dasharray: 40, 42; stroke-dashoffset: 0;"></path>
	<path fill="none" stroke="#000000" stroke-width="2" stroke-miterlimit="10" width="10" height="10" d="M27 42 L37 42 L37 52 L27 52 Z" style="stroke-dasharray: 40, 42; stroke-dashoffset: 0;"></path>
</g>
<path fill="none" stroke="#000000" stroke-width="2" stroke-miterlimit="10" d="M1,18L63,18" style="stroke-dasharray: 62, 64; stroke-dashoffset: 0;"></path>
</svg>